<svg viewBox="0 0 200 200" xmlns="http://www.w3.org/2000/svg" fill="none">
  <rect width="200" height="200" rx="32" fill="white"/>
  <path d="M28 172 C 58 112, 122 72, 170 28 C 158 94, 118 148, 28 172"
        stroke="#4CAF50" stroke-width="22" stroke-linecap="round" stroke-linejoin="round" fill="none"/>
  <path d="M36 168 C 86 128, 126 94, 150 74"
        stroke="#4CAF50" stroke-width="14" stroke-linecap="round" stroke-linejoin="round" fill="none"/>
</svg>
<svg width="32" height="32" viewBox="0 0 32 32" fill="none" xmlns="http://www.w3.org/2000/svg">
  <!-- Simplified version for favicon -->
  <rect width="32" height="32" rx="6" fill="#10b981"/>
  
  <!-- Simplified leaf icon -->
  <path d="M16 8 C20 8, 22 11, 22 15 C22 19, 19 22, 16 24 C16 24, 16 8, 16 8 Z" 
        fill="#ffffff" opacity="0.9"/>
  <path d="M16 8 C12 8, 10 11, 10 15 C10 19, 13 22, 16 24 C16 24, 16 8, 16 8 Z" 
        fill="#ffffff" opacity="0.7"/>
  
  <!-- Central line -->
  <line x1="16" y1="8" x2="16" y2="24" stroke="#047857" stroke-width="1.5" stroke-linecap="round"/>
  
  <!-- Small tracking dots -->
  <circle cx="16" cy="12" r="1.5" fill="#047857"/>
  <circle cx="16" cy="16" r="1.5" fill="#047857"/>
  <circle cx="16" cy="20" r="1.5" fill="#047857"/>
</svg>

