<svg viewBox="0 0 200 200" fill="none" xmlns="http://www.w3.org/2000/svg" aria-hidden="true" focusable="false">
  <path d="M28 172 C 58 112, 122 72, 170 28 C 158 94, 118 148, 28 172"
        stroke="#4CAF50" stroke-width="18" stroke-linecap="round" stroke-linejoin="round" fill="none"/>
  <path d="M36 168 C 86 128, 126 94, 150 74"
        stroke="#4CAF50" stroke-width="12" stroke-linecap="round" stroke-linejoin="round" fill="none"/>
</svg>
<svg width="200" height="200" viewBox="0 0 200 200" fill="none" xmlns="http://www.w3.org/2000/svg">
  <!-- Circular background -->
  <circle cx="100" cy="100" r="90" fill="#10b981" opacity="0.1"/>
  
  <!-- Main leaf shape -->
  <path d="M100 40 C140 40, 150 70, 150 100 C150 130, 130 150, 100 160 C100 160, 100 40, 100 40 Z" 
        fill="#10b981" stroke="#059669" stroke-width="2"/>
  
  <!-- Second leaf (mirrored) -->
  <path d="M100 40 C60 40, 50 70, 50 100 C50 130, 70 150, 100 160 C100 160, 100 40, 100 40 Z" 
        fill="#34d399" stroke="#059669" stroke-width="2"/>
  
  <!-- Central stem/tracking line -->
  <line x1="100" y1="40" x2="100" y2="160" stroke="#047857" stroke-width="3" stroke-linecap="round"/>
  
  <!-- Tracking dots (representing progress/tracking) -->
  <circle cx="100" cy="60" r="4" fill="#ffffff" stroke="#047857" stroke-width="1.5"/>
  <circle cx="100" cy="85" r="4" fill="#ffffff" stroke="#047857" stroke-width="1.5"/>
  <circle cx="100" cy="110" r="4" fill="#ffffff" stroke="#047857" stroke-width="1.5"/>
  <circle cx="100" cy="135" r="4" fill="#ffffff" stroke="#047857" stroke-width="1.5"/>
  
  <!-- Leaf veins (detail) -->
  <path d="M100 60 Q120 75, 130 95" stroke="#059669" stroke-width="1.5" fill="none" opacity="0.5"/>
  <path d="M100 80 Q115 90, 125 105" stroke="#059669" stroke-width="1.5" fill="none" opacity="0.5"/>
  <path d="M100 60 Q80 75, 70 95" stroke="#047857" stroke-width="1.5" fill="none" opacity="0.5"/>
  <path d="M100 80 Q85 90, 75 105" stroke="#047857" stroke-width="1.5" fill="none" opacity="0.5"/>
</svg>

